<?xml version="1.0" standalone="no"?>
<!DOCTYPE svg PUBLIC "-//W3C//DTD SVG 20010904//EN"
 "http://www.w3.org/TR/2001/REC-SVG-20010904/DTD/svg10.dtd">
<svg version="1.0" xmlns="http://www.w3.org/2000/svg"
 width="283.000000pt" height="360.000000pt" viewBox="0 0 283.000000 360.000000"
 preserveAspectRatio="xMidYMid meet">

<g transform="translate(0.000000,360.000000) scale(0.100000,-0.100000)"
fill="#000000" stroke="none">
<path d="M0 1800 l0 -1800 1415 0 1415 0 0 705 c0 672 -1 705 -18 705 -10 0
-24 6 -32 13 -8 6 -6 2 4 -10 17 -21 17 -23 2 -29 -9 -3 -16 -12 -16 -20 0 -8
-5 -14 -11 -14 -6 0 -9 7 -5 15 4 13 2 13 -14 5 -12 -7 -21 -7 -25 0 -8 13 3
30 20 30 18 0 26 15 19 34 -9 23 -24 20 -24 -4 0 -11 -5 -20 -11 -20 -5 0 -7
5 -4 10 3 6 1 10 -5 10 -7 0 -10 -6 -7 -12 2 -7 -7 -26 -22 -42 -20 -22 -21
-26 -6 -18 13 7 26 7 37 1 36 -19 16 -26 -69 -24 -82 2 -88 4 -91 23 -4 29
-32 28 -32 0 -1 -21 -2 -21 -11 -5 -5 9 -17 17 -24 17 -8 0 -15 5 -15 10 0 6
11 10 25 10 14 0 25 5 25 10 0 6 -7 10 -15 10 -9 0 -27 7 -40 16 -20 13 -28
14 -40 4 -15 -13 -10 -35 6 -25 5 4 9 1 9 -4 0 -6 -9 -11 -20 -11 -13 0 -20 7
-20 19 0 19 -35 39 -47 28 -9 -10 9 -28 23 -23 22 8 16 -11 -11 -38 l-25 -25
0 23 c0 19 -6 23 -32 24 -18 0 -28 -2 -22 -6 12 -9 16 -52 4 -52 -11 0 -21 45
-14 65 4 10 1 21 -6 25 -18 11 8 67 35 75 19 6 19 6 -4 16 -33 13 -51 5 -51
-23 0 -45 -27 -68 -78 -68 -73 0 -79 8 -58 75 l17 56 70 -2 c38 -1 72 1 76 4
3 4 19 7 35 7 18 0 28 5 28 15 0 8 -7 15 -15 15 -8 0 -15 -4 -15 -10 0 -5 -7
-10 -15 -10 -10 0 -15 11 -15 35 0 25 4 35 16 35 8 0 13 -4 9 -9 -3 -5 0 -13
6 -17 8 -4 9 -3 5 4 -4 7 -2 12 4 12 6 0 13 -7 16 -15 4 -10 14 -13 33 -8 31
7 42 22 35 46 -5 15 2 17 60 17 36 0 68 -5 71 -11 4 -6 14 -8 22 -5 8 3 11 1
8 -4 -3 -6 -2 -10 3 -10 6 0 13 8 17 18 6 16 7 16 20 -1 12 -16 13 -16 19 -1
10 26 18 10 10 -20 -6 -26 -7 -26 -25 -10 -12 11 -19 13 -19 5 0 -8 -7 -10
-20 -6 -20 6 -28 -9 -10 -20 16 -10 11 -33 -7 -37 -10 -3 -1 -6 20 -9 25 -3
37 -1 37 7 0 7 -4 16 -10 19 -12 7 -14 35 -2 35 4 0 13 -14 20 -30 15 -33 51
-41 72 -15 12 15 35 11 25 -5 -6 -9 59 -18 92 -12 18 3 23 11 23 34 0 16 -5
39 -11 50 -8 15 -8 19 0 14 8 -5 11 260 11 963 l0 971 -1415 0 -1415 0 0
-1800z m1792 1732 c7 -7 -4 -12 -33 -16 -74 -9 -586 -15 -554 -7 19 6 23 9 11
10 -11 0 -16 4 -12 9 20 19 569 23 588 4z m195 -45 c51 -20 81 -37 78 -44 -2
-7 0 -15 5 -18 20 -12 10 -26 -10 -15 -11 6 -20 17 -20 24 0 13 -127 69 -140
61 -4 -3 -10 -22 -13 -42 -4 -21 -20 -53 -37 -73 l-30 -35 24 38 c26 41 43
117 30 138 -5 9 -2 10 12 5 10 -4 56 -22 101 -39z m-987 29 c0 -3 -4 -8 -10
-11 -5 -3 -10 -1 -10 4 0 6 5 11 10 11 6 0 10 -2 10 -4z m1153 -96 c14 -11 31
-18 39 -15 28 11 170 -36 265 -87 109 -59 174 -118 216 -196 16 -29 27 -52 24
-52 -2 0 -21 28 -43 61 -21 34 -58 74 -81 90 -46 32 -59 35 -66 17 -3 -7 -6
-1 -6 15 -1 15 -6 27 -11 27 -6 0 -43 16 -83 35 -39 19 -99 38 -133 44 -68 10
-117 30 -154 60 -34 28 -3 29 33 1z m-1413 -10 c-14 -11 -32 -19 -41 -17 -9 1
-23 -4 -32 -11 -8 -7 -44 -17 -80 -22 -60 -9 -221 -79 -239 -105 -5 -6 -8 -6
-8 2 0 21 199 114 305 143 124 34 126 34 95 10z m1250 -540 c0 -5 -4 -10 -10
-10 -5 0 -10 5 -10 10 0 6 5 10 10 10 6 0 10 -4 10 -10z m-86 -21 c-3 -5 -10
-7 -15 -3 -5 3 -7 10 -3 15 3 5 10 7 15 3 5 -3 7 -10 3 -15z m166 -5 c0 -8 -4
-12 -10 -9 -5 3 -10 10 -10 16 0 5 5 9 10 9 6 0 10 -7 10 -16z m-61 -20 c42
-9 86 -56 101 -108 16 -57 -1 -119 -45 -163 -29 -29 -39 -33 -86 -33 -40 0
-60 6 -84 24 -92 70 -83 220 15 268 39 19 54 21 99 12z m-1200 -101 c-3 -30 1
-43 11 -43 6 0 10 9 10 20 0 30 50 28 51 -2 2 -23 2 -23 6 -1 5 26 31 37 49
22 10 -8 14 -8 14 0 0 14 47 14 56 0 4 -8 9 -8 17 0 6 6 19 11 29 11 14 0 18
-8 18 -35 0 -35 -1 -35 -37 -34 -21 1 -48 -2 -60 -6 -18 -6 -23 -3 -24 11 0
11 -3 14 -6 7 -2 -7 -11 -13 -18 -13 -7 0 -16 -6 -18 -12 -4 -9 -8 -10 -14 -2
-11 16 -113 24 -114 10 -1 -14 -17 34 -18 56 -1 10 8 18 22 21 12 2 23 5 25 6
2 0 2 -7 1 -16z m418 -770 c-1 -59 -3 -13 -3 102 0 116 2 164 3 108 2 -56 2
-151 0 -210z m221 241 c15 -4 22 -14 22 -31 0 -23 -2 -24 -40 -18 -46 8 -80
-1 -80 -21 0 -7 27 -27 60 -44 32 -16 64 -39 70 -49 39 -73 -49 -138 -150
-111 -35 9 -40 14 -40 40 l0 28 39 -15 c48 -19 91 -11 91 17 0 14 -17 28 -60
50 -70 35 -90 65 -72 105 20 42 96 66 160 49z m300 0 c15 -4 22 -14 22 -29 0
-22 -3 -23 -55 -18 -66 7 -100 -11 -113 -60 -23 -86 44 -138 146 -113 28 7 32
5 32 -13 0 -29 -29 -41 -98 -41 -96 0 -152 50 -152 135 0 98 109 168 218 139z
m270 0 c15 -4 22 -14 22 -29 0 -22 -3 -23 -58 -18 -51 5 -61 3 -85 -18 -41
-36 -46 -87 -12 -127 23 -27 34 -32 71 -32 l44 0 0 45 c0 41 2 45 25 45 24 0
25 -3 25 -60 0 -56 -2 -61 -26 -70 -37 -14 -109 -12 -149 4 -71 30 -97 130
-52 197 38 57 118 83 195 63z m-999 -65 c41 -15 52 -37 45 -93 -8 -56 -19 -67
-28 -26 -4 24 -11 30 -31 30 -20 0 -25 -5 -25 -25 0 -28 -19 -35 -21 -7 -3 45
-5 52 -14 49 -5 -1 -9 -14 -9 -29 3 -48 -13 -30 -20 23 -8 56 1 75 37 82 12 2
25 5 28 6 3 0 20 -4 38 -10z m1361 -103 c0 -3 -4 -8 -10 -11 -5 -3 -10 -1 -10
4 0 6 5 11 10 11 6 0 10 -2 10 -4z m310 -416 c0 -5 -2 -10 -4 -10 -3 0 -8 5
-11 10 -3 6 -1 10 4 10 6 0 11 -4 11 -10z m-634 -59 c-4 -5 -1 -11 6 -13 9 -3
9 -15 -2 -51 -7 -26 -15 -46 -17 -43 -3 2 0 21 6 42 7 24 7 42 1 49 -6 7 -7
15 -3 18 9 10 15 8 9 -2z m56 -13 c-5 -18 -7 -19 -10 -6 -2 9 -11 19 -20 21
-10 3 -6 5 10 6 22 1 25 -2 20 -21z m-482 -6 c0 -5 -13 -7 -30 -4 -16 2 -30 6
-30 8 0 2 14 4 30 4 17 0 30 -4 30 -8z m150 -1 c0 -4 -11 -6 -25 -3 -14 2 -25
6 -25 8 0 2 11 4 25 4 14 0 25 -4 25 -9z m155 0 c3 -5 1 -12 -5 -16 -5 -3 -10
-2 -10 4 0 5 -10 12 -22 14 -20 4 -20 4 4 6 15 0 29 -3 33 -8z m-62 -18 c-7
-2 -19 -2 -25 0 -7 3 -2 5 12 5 14 0 19 -2 13 -5z m221 -41 c-3 -17 -12 -33
-19 -36 -10 -4 -10 1 1 22 8 15 14 33 14 41 0 8 2 12 5 9 3 -3 2 -19 -1 -36z
m-537 12 c-3 -3 -12 -4 -19 -1 -8 3 -5 6 6 6 11 1 17 -2 13 -5z m376 -1 c-7
-2 -19 -2 -25 0 -7 3 -2 5 12 5 14 0 19 -2 13 -5z m-173 -19 c0 -2 -13 -4 -30
-4 -16 0 -30 4 -30 8 0 5 14 7 30 4 17 -2 30 -6 30 -8z m250 -12 c0 -15 -2
-15 -10 -2 -9 13 -11 13 -20 0 -8 -13 -10 -13 -10 2 0 17 19 29 33 21 4 -2 7
-12 7 -21z m-412 11 c-10 -2 -26 -2 -35 0 -10 3 -2 5 17 5 19 0 27 -2 18 -5z
m352 -10 c0 -12 -3 -14 -8 -6 -4 6 -25 13 -47 16 -40 4 -40 4 8 5 39 2 47 -1
47 -15z m510 -99 c0 -8 -4 -12 -10 -9 -5 3 -10 13 -10 21 0 8 5 12 10 9 6 -3
10 -13 10 -21z m-155 -976 c2 -7 6 -30 10 -52 6 -35 7 -37 20 -20 13 18 14 18
20 -1 4 -11 20 -49 36 -84 16 -35 29 -78 29 -95 0 -31 -1 -32 -35 -28 -37 4
-61 32 -57 64 2 9 -5 18 -15 21 -11 3 -7 6 12 7 l30 2 -30 8 c-28 7 -27 8 13
9 55 1 52 21 -5 37 -76 22 -83 30 -83 84 0 38 4 50 18 53 29 8 33 7 37 -5z
m-132 -38 c9 -11 24 -20 32 -20 8 0 15 -5 15 -11 0 -14 -43 0 -53 17 -4 8 -17
14 -27 14 -11 0 -20 5 -20 10 0 17 35 11 53 -10z m-1628 -170 c3 -5 1 -10 -4
-10 -6 0 -11 5 -11 10 0 6 2 10 4 10 3 0 8 -4 11 -10z m-18 -72 c-3 -8 -6 -5
-6 6 -1 11 2 17 5 13 3 -3 4 -12 1 -19z"/>
<path d="M1930 2784 c0 -8 5 -12 10 -9 6 3 10 10 10 16 0 5 -4 9 -10 9 -5 0
-10 -7 -10 -16z"/>
<path d="M1915 2735 c-18 -17 -25 -35 -25 -63 0 -104 141 -127 166 -27 22 89
-79 153 -141 90z m100 -33 c3 -8 0 -19 -7 -24 -8 -5 -9 -11 -3 -15 14 -11 12
-56 -3 -61 -7 -2 -12 5 -12 17 0 27 -30 28 -37 1 -3 -11 -9 -18 -13 -15 -5 3
-4 19 1 37 5 19 5 36 -1 43 -17 21 17 46 52 37 9 -2 19 -11 23 -20z"/>
<path d="M2055 2590 c-3 -5 -1 -10 4 -10 6 0 11 5 11 10 0 6 -2 10 -4 10 -3 0
-8 -4 -11 -10z"/>
<path d="M2288 283 c7 -3 16 -2 19 1 4 3 -2 6 -13 5 -11 0 -14 -3 -6 -6z"/>
<path d="M2430 1585 c12 -15 30 -12 30 6 0 5 -10 9 -21 9 -18 0 -19 -2 -9 -15z"/>
<path d="M2757 1531 c-10 -48 -10 -49 18 -43 15 2 25 0 25 -7 0 -6 5 -11 11
-11 6 0 8 7 5 16 -4 9 -1 24 6 33 10 13 10 14 -2 4 -24 -22 -48 -15 -52 15 -3
26 -3 26 -11 -7z"/>
<path d="M2130 1526 c-5 -14 -10 -37 -12 -53 -3 -27 -1 -28 43 -29 55 -2 68 4
71 36 3 23 -1 25 -39 28 -32 2 -41 7 -36 18 6 16 59 19 68 4 9 -15 25 -12 25
5 0 12 -13 15 -55 15 -50 0 -56 -3 -65 -24z m80 -46 c0 -16 -7 -20 -35 -20
-22 0 -35 5 -35 13 0 20 10 27 42 27 21 0 28 -5 28 -20z"/>
<path d="M2155 1480 c-4 -6 5 -10 19 -10 14 0 26 5 26 10 0 6 -9 10 -19 10
-11 0 -23 -4 -26 -10z"/>
<path d="M2553 1543 c9 -2 17 -11 17 -19 0 -8 5 -12 10 -9 21 13 10 35 -17 34
-17 -1 -21 -3 -10 -6z"/>
<path d="M2636 1534 c-17 -17 -21 -34 -8 -34 5 0 14 11 20 25 13 29 10 31 -12
9z"/>
<path d="M2713 1514 c-1 -30 1 -33 13 -23 17 14 19 59 2 59 -8 0 -14 -15 -15
-36z"/>
<path d="M2178 1523 c6 -2 18 -2 25 0 6 3 1 5 -13 5 -14 0 -19 -2 -12 -5z"/>
<path d="M2516 1521 c-6 -9 21 -31 28 -24 12 12 6 30 -9 30 -9 0 -17 -3 -19
-6z"/>
<path d="M2665 1520 c-3 -5 3 -10 14 -10 11 0 23 5 26 10 3 6 -3 10 -14 10
-11 0 -23 -4 -26 -10z"/>
<path d="M2561 1484 c0 -11 3 -14 6 -6 3 7 2 16 -1 19 -3 4 -6 -2 -5 -13z"/>
<path d="M2385 1480 c-3 -6 1 -7 9 -4 18 7 21 14 7 14 -6 0 -13 -4 -16 -10z"/>
<path d="M2310 1425 c0 -8 7 -15 16 -15 14 0 14 3 4 15 -7 8 -14 15 -16 15 -2
0 -4 -7 -4 -15z"/>
<path d="M2560 1359 c0 -5 5 -7 10 -4 6 3 10 8 10 11 0 2 -4 4 -10 4 -5 0 -10
-5 -10 -11z"/>
</g>
</svg>
