<?xml version="1.0" encoding="UTF-8"?>
<svg xmlns="http://www.w3.org/2000/svg" xmlns:xlink="http://www.w3.org/1999/xlink" width="18pt" height="18pt" viewBox="0 0 18 18" version="1.1">
<g id="surface1">
<path style=" stroke:none;fill-rule:nonzero;fill:#FFFFFF;fill-opacity:1;" d="M 15.367188 2.632812 C 11.855469 -0.878906 6.144531 -0.878906 2.632812 2.632812 C -0.878906 6.144531 -0.878906 11.855469 2.632812 15.367188 C 4.386719 17.121094 6.695312 18 9 18 C 11.304688 18 13.609375 17.121094 15.367188 15.367188 C 18.878906 11.855469 18.878906 6.144531 15.367188 2.632812 Z M 12.714844 11.652344 C 13.007812 11.945312 13.007812 12.421875 12.714844 12.714844 C 12.566406 12.859375 12.375 12.933594 12.183594 12.933594 C 11.992188 12.933594 11.800781 12.859375 11.652344 12.714844 L 9 10.0625 L 6.347656 12.714844 C 6.203125 12.859375 6.007812 12.933594 5.816406 12.933594 C 5.625 12.933594 5.433594 12.859375 5.289062 12.714844 C 4.992188 12.421875 4.992188 11.945312 5.289062 11.652344 L 7.9375 9 L 5.285156 6.347656 C 4.992188 6.054688 4.992188 5.578125 5.285156 5.285156 C 5.578125 4.992188 6.054688 4.992188 6.347656 5.285156 L 9 7.9375 L 11.652344 5.285156 C 11.945312 4.992188 12.421875 4.992188 12.714844 5.285156 C 13.007812 5.578125 13.007812 6.054688 12.714844 6.347656 L 10.0625 9 Z M 12.714844 11.652344 "/>
</g>
</svg>
