<?xml version="1.0" encoding="UTF-8"?>
<svg xmlns="http://www.w3.org/2000/svg" xmlns:xlink="http://www.w3.org/1999/xlink" width="20pt" height="20pt" viewBox="0 0 20 20" version="1.1">
<g id="surface1">
<path style=" stroke:none;fill-rule:nonzero;fill:rgb(0%,0%,0%);fill-opacity:1;" d="M 8.789062 1.640625 C 7.476562 1.84375 5.960938 2.484375 4.914062 3.28125 C 3.445312 4.382812 2.3125 6.09375 1.820312 7.929688 C 1.640625 8.625 1.617188 8.851562 1.617188 10 C 1.617188 11.148438 1.640625 11.375 1.820312 12.070312 C 2.3125 13.90625 3.4375 15.609375 4.914062 16.726562 C 5.648438 17.28125 7 17.9375 7.929688 18.179688 C 8.625 18.359375 8.859375 18.382812 10 18.382812 C 11.148438 18.382812 11.375 18.359375 12.070312 18.179688 C 13.90625 17.6875 15.609375 16.5625 16.726562 15.085938 C 17.28125 14.351562 17.9375 13 18.179688 12.070312 C 18.359375 11.375 18.382812 11.140625 18.382812 10 C 18.382812 8.859375 18.359375 8.625 18.179688 7.929688 C 17.9375 7 17.28125 5.648438 16.726562 4.914062 C 15.601562 3.429688 13.882812 2.296875 12.070312 1.828125 C 11.1875 1.609375 9.609375 1.515625 8.789062 1.640625 Z M 12.054688 2.0625 C 14.28125 2.632812 16.234375 4.164062 17.242188 6.140625 C 17.546875 6.742188 17.96875 7.851562 18.007812 8.164062 C 18.015625 8.25 18.070312 8.617188 18.125 8.976562 C 18.21875 9.59375 18.195312 10.921875 18.085938 11.523438 C 18.007812 11.9375 17.5625 13.226562 17.367188 13.632812 C 17 14.359375 16.460938 15.117188 15.90625 15.6875 C 14.765625 16.867188 13.640625 17.515625 11.929688 17.976562 C 11.367188 18.125 11.3125 18.132812 10.351562 18.179688 C 9.367188 18.226562 8.3125 18.09375 7.578125 17.84375 C 7.382812 17.773438 7.195312 17.710938 7.148438 17.703125 C 7.039062 17.679688 5.953125 17.148438 5.664062 16.976562 C 4.515625 16.304688 3.3125 14.984375 2.664062 13.695312 C 2.390625 13.148438 2.0625 12.195312 1.945312 11.601562 C 1.734375 10.554688 1.789062 8.9375 2.085938 7.8125 C 2.109375 7.703125 2.140625 7.578125 2.15625 7.539062 C 2.195312 7.351562 2.523438 6.570312 2.710938 6.210938 C 3.320312 5.023438 4.046875 4.210938 5.445312 3.15625 C 6.125 2.648438 7.679688 2.054688 8.789062 1.875 C 9.59375 1.75 11.1875 1.84375 12.054688 2.0625 Z M 12.054688 2.0625 "/>
<path style=" stroke:none;fill-rule:nonzero;fill:rgb(0%,0%,0%);fill-opacity:1;" d="M 9.054688 1.984375 C 9.039062 2 8.882812 2.03125 8.710938 2.0625 C 8.351562 2.109375 7.40625 2.367188 7.070312 2.507812 C 6.9375 2.5625 6.820312 2.609375 6.796875 2.609375 C 6.601562 2.648438 5.429688 3.382812 5.015625 3.726562 C 3.4375 5.046875 2.5 6.5625 2.148438 8.367188 C 1.992188 9.171875 1.929688 10.875 2.039062 11.28125 C 2.085938 11.445312 2.132812 11.65625 2.15625 11.742188 C 2.234375 12.179688 2.460938 12.828125 2.703125 13.3125 C 2.84375 13.609375 2.945312 13.890625 2.914062 13.9375 C 2.890625 13.984375 2.890625 14 2.929688 13.96875 C 2.960938 13.9375 3.117188 14.117188 3.28125 14.359375 C 4.398438 16.054688 6.085938 17.28125 7.976562 17.773438 C 8.703125 17.96875 8.71875 17.96875 9.546875 18.023438 C 13.109375 18.25 16.476562 15.9375 17.640625 12.460938 C 18.101562 11.09375 18.15625 9.460938 17.773438 7.96875 C 17.40625 6.507812 16.28125 4.765625 15.070312 3.78125 C 13.65625 2.632812 12.046875 2.039062 10.148438 1.984375 C 9.570312 1.96875 9.078125 1.96875 9.054688 1.984375 Z M 12.023438 2.460938 C 14.742188 3.203125 16.828125 5.296875 17.554688 8.03125 C 17.734375 8.6875 17.757812 8.945312 17.765625 10 C 17.765625 11.078125 17.742188 11.296875 17.554688 11.96875 C 16.789062 14.75 14.75 16.789062 11.984375 17.554688 C 11.296875 17.742188 11.078125 17.765625 10 17.765625 C 8.921875 17.765625 8.703125 17.742188 8.015625 17.554688 C 5.25 16.789062 3.210938 14.75 2.445312 11.96875 C 2.257812 11.296875 2.234375 11.078125 2.234375 10 C 2.242188 8.945312 2.265625 8.6875 2.445312 8.03125 C 3.257812 5 5.734375 2.765625 8.867188 2.257812 C 9.617188 2.140625 11.21875 2.242188 12.023438 2.460938 Z M 12.023438 2.460938 "/>
<path style=" stroke:none;fill-rule:nonzero;fill:rgb(0%,0%,0%);fill-opacity:1;" d="M 9.296875 4.234375 C 8.523438 4.648438 8.21875 5.585938 8.609375 6.328125 C 9.023438 7.101562 9.960938 7.40625 10.703125 7.015625 C 11.476562 6.601562 11.78125 5.664062 11.390625 4.921875 C 10.976562 4.148438 10.039062 3.84375 9.296875 4.234375 Z M 10.609375 4.445312 C 11.007812 4.648438 11.148438 4.820312 11.257812 5.257812 C 11.367188 5.710938 11.3125 6.09375 11.085938 6.414062 C 10.882812 6.695312 10.382812 6.945312 10.015625 6.953125 C 9.492188 6.953125 8.921875 6.578125 8.742188 6.101562 C 8.578125 5.6875 8.765625 4.882812 9.09375 4.617188 C 9.273438 4.460938 9.765625 4.304688 10.0625 4.296875 C 10.203125 4.296875 10.445312 4.367188 10.609375 4.445312 Z M 10.609375 4.445312 "/>
<path style=" stroke:none;fill-rule:nonzero;fill:rgb(0%,0%,0%);fill-opacity:1;" d="M 9.570312 4.5625 C 9 4.804688 8.679688 5.578125 8.9375 6.070312 C 9.34375 6.859375 10.195312 7.015625 10.796875 6.40625 C 11.078125 6.132812 11.09375 6.085938 11.09375 5.640625 C 11.09375 5.242188 11.0625 5.132812 10.882812 4.914062 C 10.523438 4.492188 10.039062 4.359375 9.570312 4.5625 Z M 10.46875 4.8125 C 11.085938 5.179688 11.085938 6.070312 10.46875 6.4375 C 9.859375 6.789062 9.0625 6.328125 9.0625 5.625 C 9.0625 4.914062 9.859375 4.460938 10.46875 4.8125 Z M 10.46875 4.8125 "/>
<path style=" stroke:none;fill-rule:nonzero;fill:rgb(0%,0%,0%);fill-opacity:1;" d="M 9.296875 7.984375 C 9.101562 8.09375 8.84375 8.328125 8.710938 8.507812 L 8.476562 8.84375 L 8.429688 14.734375 L 8.617188 15.078125 C 8.71875 15.273438 8.953125 15.53125 9.132812 15.664062 C 9.421875 15.867188 9.53125 15.898438 10 15.898438 C 10.46875 15.898438 10.578125 15.867188 10.867188 15.664062 C 11.046875 15.53125 11.28125 15.273438 11.382812 15.085938 C 11.5625 14.742188 11.5625 14.726562 11.5625 11.875 C 11.5625 9.023438 11.5625 9.007812 11.382812 8.664062 C 10.976562 7.898438 10.03125 7.59375 9.296875 7.984375 Z M 10.609375 8.195312 C 11.320312 8.5625 11.34375 8.664062 11.3125 12.070312 L 11.289062 14.882812 L 11.101562 15.148438 C 10.890625 15.445312 10.390625 15.695312 10.015625 15.703125 C 9.492188 15.703125 8.921875 15.328125 8.742188 14.851562 C 8.703125 14.75 8.671875 13.398438 8.671875 11.851562 C 8.679688 9.265625 8.6875 9.015625 8.828125 8.757812 C 9.007812 8.40625 9.132812 8.296875 9.507812 8.15625 C 9.921875 8.007812 10.273438 8.023438 10.609375 8.195312 Z M 10.609375 8.195312 "/>
<path style=" stroke:none;fill-rule:nonzero;fill:rgb(0%,0%,0%);fill-opacity:1;" d="M 9.570312 8.3125 C 9.25 8.453125 9 8.75 8.90625 9.070312 C 8.859375 9.21875 8.828125 10.5 8.828125 12 C 8.828125 14.640625 8.828125 14.664062 9.007812 14.929688 C 9.507812 15.679688 10.34375 15.742188 10.882812 15.070312 C 11 14.921875 11.125 14.773438 11.15625 14.734375 C 11.1875 14.695312 11.195312 13.390625 11.171875 11.828125 C 11.132812 9.125 11.125 8.984375 10.96875 8.78125 C 10.601562 8.28125 10.039062 8.09375 9.570312 8.3125 Z M 10.46875 8.5625 C 10.9375 8.84375 10.9375 8.859375 10.9375 11.875 C 10.9375 14.28125 10.921875 14.648438 10.8125 14.84375 C 10.445312 15.460938 9.554688 15.460938 9.1875 14.84375 C 9.078125 14.648438 9.0625 14.28125 9.0625 11.875 C 9.0625 9.476562 9.078125 9.101562 9.1875 8.914062 C 9.453125 8.460938 10.03125 8.304688 10.46875 8.5625 Z M 10.46875 8.5625 "/>
</g>
</svg>
