<?xml version="1.0" encoding="UTF-8"?>
<svg xmlns="http://www.w3.org/2000/svg" xmlns:xlink="http://www.w3.org/1999/xlink" width="17pt" height="17pt" viewBox="0 0 17 17" version="1.1">
<g id="surface1">
<path style=" stroke:none;fill-rule:nonzero;fill:#FFFFFF;fill-opacity:1;" d="M 10.921875 5.773438 L 6.636719 6.308594 L 6.480469 7.023438 L 7.324219 7.175781 C 7.875 7.304688 7.980469 7.503906 7.863281 8.050781 L 6.480469 14.535156 C 6.121094 16.214844 6.679688 17 7.996094 17 C 9.015625 17 10.195312 16.527344 10.730469 15.882812 L 10.898438 15.105469 C 10.523438 15.433594 9.976562 15.566406 9.617188 15.566406 C 9.101562 15.566406 8.914062 15.203125 9.042969 14.570312 Z M 11.050781 1.871094 C 11.050781 2.902344 10.214844 3.738281 9.175781 3.738281 C 8.144531 3.738281 7.308594 2.902344 7.308594 1.871094 C 7.308594 0.835938 8.144531 0 9.175781 0 C 10.214844 0 11.050781 0.835938 11.050781 1.871094 Z M 11.050781 1.871094 "/>
</g>
</svg>
