<?xml version="1.0" encoding="UTF-8"?>
<svg xmlns="http://www.w3.org/2000/svg" xmlns:xlink="http://www.w3.org/1999/xlink" width="20pt" height="20pt" viewBox="0 0 20 20" version="1.1">
<g id="surface1">
<path style=" stroke:none;fill-rule:nonzero;fill:rgb(0%,0%,0%);fill-opacity:1;" d="M 16.066406 0.183594 C 15.824219 -0.0625 15.429688 -0.0625 15.183594 0.183594 L 13.125 2.242188 L 17.757812 6.875 L 19.816406 4.816406 C 19.933594 4.699219 20 4.542969 20 4.375 C 20 4.207031 19.933594 4.050781 19.816406 3.933594 Z M 16.875 7.757812 L 12.242188 3.125 L 4.117188 11.25 L 4.375 11.25 C 4.71875 11.25 5 11.53125 5 11.875 L 5 12.5 L 5.625 12.5 C 5.96875 12.5 6.25 12.78125 6.25 13.125 L 6.25 13.75 L 6.875 13.75 C 7.21875 13.75 7.5 14.03125 7.5 14.375 L 7.5 15 L 8.125 15 C 8.46875 15 8.75 15.28125 8.75 15.625 L 8.75 15.882812 Z M 7.539062 17.09375 C 7.515625 17.023438 7.5 16.949219 7.5 16.875 L 7.5 16.25 L 6.875 16.25 C 6.53125 16.25 6.25 15.96875 6.25 15.625 L 6.25 15 L 5.625 15 C 5.28125 15 5 14.71875 5 14.375 L 5 13.75 L 4.375 13.75 C 4.03125 13.75 3.75 13.46875 3.75 13.125 L 3.75 12.5 L 3.125 12.5 C 3.050781 12.5 2.976562 12.488281 2.90625 12.460938 L 2.683594 12.683594 C 2.621094 12.742188 2.574219 12.8125 2.546875 12.890625 L 0.046875 19.140625 C -0.046875 19.375 0.0078125 19.640625 0.183594 19.816406 C 0.359375 19.992188 0.625 20.046875 0.859375 19.953125 L 7.109375 17.453125 C 7.1875 17.425781 7.257812 17.378906 7.316406 17.316406 Z M 7.539062 17.09375 "/>
</g>
</svg>
