<?xml version="1.0" standalone="no"?>
<!DOCTYPE svg PUBLIC "-//W3C//DTD SVG 20010904//EN"
 "http://www.w3.org/TR/2001/REC-SVG-20010904/DTD/svg10.dtd">
<svg version="1.0" xmlns="http://www.w3.org/2000/svg"
 width="20.000000pt" height="20.000000pt" viewBox="0 0 20.000000 20.000000"
 preserveAspectRatio="xMidYMid meet">
<metadata>
Created by potrace 1.16, written by Peter Selinger 2001-2019
</metadata>
<g transform="translate(0.000000,20.000000) scale(0.003906,-0.003906)"
fill="#000000" stroke="none">
<path d="M2395 4440 l-679 -679 22 -23 21 -24 -485 -484 c-268 -267 -488 -480
-490 -475 -2 6 -13 24 -23 40 l-19 30 1137 1139 c941 944 1132 1140 1114 1144
-13 2 -33 -4 -45 -12 -31 -22 -2894 -2884 -2919 -2919 -11 -15 -19 -37 -17
-50 4 -18 52 26 310 281 l305 304 -23 -88 -24 -88 -285 -286 c-231 -232 -285
-292 -285 -313 0 -15 3 -27 7 -27 4 0 130 122 280 272 l273 272 -6 -69 -6 -70
-274 -276 c-222 -223 -274 -281 -274 -302 0 -15 3 -27 7 -27 4 0 128 120 275
267 l268 268 0 -65 0 -64 -275 -276 c-223 -224 -275 -282 -275 -303 0 -15 3
-27 7 -27 4 0 129 122 279 271 l271 271 11 -54 11 -53 -290 -291 c-234 -236
-289 -295 -289 -317 0 -15 3 -27 7 -27 4 0 137 129 295 287 184 183 289 282
292 272 2 -8 9 -30 15 -48 l11 -35 -310 -311 c-252 -253 -310 -316 -310 -338
0 -15 3 -27 7 -27 4 0 148 140 319 311 l312 311 17 -47 18 -46 -336 -338
c-275 -275 -337 -342 -337 -364 0 -15 3 -27 7 -27 4 0 161 154 349 341 l342
342 22 -43 22 -43 -371 -371 c-304 -305 -371 -377 -371 -399 0 -15 3 -27 7
-27 4 0 177 169 384 376 l377 376 26 -38 26 -39 -410 -410 c-337 -338 -410
-416 -410 -438 0 -15 3 -27 7 -27 4 0 195 188 425 417 l418 417 29 -34 30 -35
-455 -455 c-374 -376 -454 -461 -454 -483 0 -15 3 -27 7 -27 4 0 216 208 470
462 l463 463 32 -33 33 -32 -503 -503 c-418 -419 -502 -507 -502 -530 0 -23 3
-26 18 -18 9 5 242 235 517 510 275 276 503 501 507 501 3 0 21 -12 38 -27
l32 -26 -531 -531 c-292 -292 -531 -535 -531 -539 0 -4 12 -7 27 -7 23 0 117
89 548 520 286 286 524 520 528 520 5 0 23 -10 42 -23 l34 -23 -480 -480
c-264 -263 -485 -487 -490 -496 -8 -15 -5 -18 18 -18 23 0 108 81 510 482
l482 482 40 -19 c23 -10 41 -21 41 -24 0 -3 -198 -204 -441 -446 -242 -242
-445 -448 -450 -457 -8 -15 -5 -18 18 -18 22 0 103 76 478 449 l450 450 42
-22 43 -22 -411 -410 c-226 -226 -415 -418 -420 -427 -8 -15 -5 -18 18 -18 22
0 99 72 447 419 l421 418 49 -14 49 -15 -397 -397 c-218 -218 -396 -400 -396
-404 0 -4 12 -7 27 -7 22 0 98 71 424 396 l397 396 43 -7 c24 -4 48 -10 53
-12 4 -3 -161 -175 -368 -382 -207 -207 -376 -380 -376 -384 0 -4 12 -7 27 -7
22 0 95 68 408 380 l381 380 64 0 65 0 -373 -373 c-204 -205 -372 -376 -372
-380 0 -4 12 -7 27 -7 22 0 90 63 375 347 l348 347 0 -64 0 -65 -266 -265
c-146 -146 -270 -273 -275 -282 -8 -15 -5 -18 17 -18 22 0 74 47 276 247 l248
247 0 -65 0 -64 -166 -165 c-91 -91 -170 -173 -175 -182 -8 -15 -5 -18 17 -18
21 0 59 32 175 147 l149 147 0 -65 0 -65 -66 -64 c-83 -82 -94 -100 -60 -100
14 0 44 18 75 46 l51 46 0 -46 c0 -38 3 -46 18 -46 10 0 24 6 31 13 11 10 13
9 7 -1 -5 -8 1 -12 21 -12 23 0 199 171 1163 1135 871 871 1140 1134 1153
1129 23 -9 44 10 58 54 8 28 90 116 335 363 264 265 324 330 324 352 0 15 -3
27 -7 27 -4 0 -142 -134 -306 -297 -165 -164 -297 -290 -294 -281 3 9 12 45
18 80 l13 63 288 291 c233 235 288 296 288 317 0 15 -3 27 -7 27 -4 0 -130
-123 -280 -272 l-273 -273 0 65 0 64 280 281 c229 230 280 286 280 309 0 22
-3 25 -17 17 -10 -5 -135 -127 -278 -271 l-260 -260 -5 57 -5 58 282 286 c231
233 283 290 283 313 0 22 -3 25 -17 17 -10 -5 -137 -129 -283 -275 -146 -146
-268 -266 -271 -266 -4 0 -10 23 -14 51 l-7 51 296 297 c240 242 296 302 296
324 0 15 -3 27 -7 27 -4 0 -141 -133 -304 -296 l-296 -296 -17 48 -16 48 320
321 c261 262 320 326 320 348 0 15 -3 27 -7 27 -4 0 -152 -145 -329 -321
l-322 -322 -20 44 -19 44 348 351 c285 286 349 355 349 377 0 15 -3 27 -7 27
-4 0 -167 -159 -361 -352 -195 -194 -356 -348 -358 -343 -2 6 -13 24 -23 40
l-19 30 384 386 c317 318 384 390 384 412 0 23 -3 26 -17 18 -10 -5 -189 -181
-397 -390 l-380 -380 -23 34 c-13 19 -23 37 -23 42 0 4 189 197 420 428 348
349 420 426 420 448 0 23 -3 26 -17 18 -10 -5 -207 -199 -438 -430 -403 -404
-420 -420 -438 -403 -52 47 -73 20 427 521 385 386 466 472 466 494 0 15 -3
27 -7 27 -4 0 -222 -215 -485 -477 l-478 -478 -32 33 -33 32 518 518 c428 429
517 522 517 545 0 15 -3 27 -7 27 -4 0 -246 -238 -538 -530 l-530 -529 -34 31
-34 30 517 517 c284 284 516 520 516 524 0 4 -12 7 -27 7 -23 0 -115 -88 -538
-510 l-510 -510 -39 26 -38 26 476 477 c262 262 476 480 476 484 0 4 -12 7
-27 7 -22 0 -109 -82 -499 -471 l-472 -471 -41 23 -42 23 441 441 c242 242
440 444 440 448 0 4 -12 7 -27 7 -22 0 -104 -77 -464 -436 l-437 -436 -47 17
-46 18 410 411 c226 227 411 415 411 419 0 4 -12 7 -27 7 -22 0 -100 -73 -437
-409 l-411 -409 -49 15 -49 15 386 387 c213 212 387 390 387 394 0 4 -12 7
-27 7 -22 0 -97 -70 -417 -388 l-391 -389 -53 11 -52 11 360 360 c199 198 366
368 371 378 8 14 5 17 -18 17 -22 0 -92 -65 -403 -375 l-376 -375 -42 0 c-30
0 -44 5 -49 16 -4 11 93 115 346 368 193 193 351 355 351 359 0 4 -12 7 -27 7
-22 0 -86 -59 -350 -322 l-323 -322 0 64 0 65 241 240 c132 132 245 248 250
258 8 14 5 17 -17 17 -22 0 -70 -43 -251 -222 l-223 -222 0 65 0 64 141 140
c161 160 172 175 133 175 -20 0 -55 -29 -150 -122 l-124 -121 0 63 c0 62 1 64
53 119 48 51 50 56 30 59 -13 2 -36 -6 -53 -18 l-30 -21 0 25 c0 18 -5 26 -18
26 -9 0 -314 -297 -697 -680z m-1032 -1322 l-498 -498 -17 23 c-41 52 -59 31
458 548 l488 489 34 -32 33 -32 -498 -498z m92 -108 l-505 -505 -25 30 c-13
17 -24 34 -25 40 0 5 224 234 497 507 l497 498 34 -32 33 -32 -506 -506z m98
-102 l-507 -508 -34 32 -33 32 508 508 507 508 34 -32 33 -32 -508 -508z m103
-97 l-504 -504 -37 28 -36 28 508 509 507 508 34 -32 33 -32 -505 -505z m107
-93 c-273 -273 -502 -494 -507 -491 -6 4 -24 15 -40 26 l-28 20 503 503 503
504 34 -32 33 -32 -498 -498z m115 -85 c-266 -266 -487 -483 -493 -483 -5 0
-25 9 -44 21 l-34 21 494 494 493 494 34 -32 33 -32 -483 -483z m1460 488 c20
-6 9 -19 -103 -131 l-125 -125 0 65 0 65 72 72 c76 77 73 76 156 54z m128 -32
c24 -6 44 -14 44 -18 0 -3 -90 -96 -200 -206 l-200 -200 0 65 0 65 152 152
c84 84 154 153 156 153 2 0 23 -5 48 -11z m-1183 -251 l-177 -178 -33 32 -33
32 177 178 177 178 33 -32 33 -32 -177 -178z m1332 195 c19 -9 35 -19 35 -22
0 -4 -121 -128 -270 -276 l-270 -270 0 65 0 65 227 227 c125 126 231 228 235
228 4 0 23 -8 43 -17z m-317 -580 l-492 -493 -34 32 -33 32 482 482 482 482
44 -21 44 -21 -493 -493z m-915 285 l-177 -178 -33 32 -33 32 177 178 177 178
33 -32 33 -32 -177 -178z m1492 150 l35 -23 -502 -502 -502 -503 -34 32 -33
32 493 493 c271 271 496 493 501 493 4 0 23 -10 42 -22z m-1392 -250 l-177
-178 -33 32 -33 32 177 178 177 178 33 -32 33 -32 -177 -178z m1502 163 l33
-28 -507 -507 -506 -506 -33 32 -32 33 502 502 c277 277 505 503 507 503 2 0
18 -13 36 -29z m-1402 -263 l-177 -178 -33 32 -33 32 177 178 177 178 33 -32
33 -32 -177 -178z m1030 -370 l-507 -508 -34 32 -33 32 508 508 507 508 34
-32 33 -32 -508 -508z m-1846 154 l-244 -244 -43 22 -43 22 284 284 284 284 3
-62 3 -62 -244 -244z m916 116 l-177 -178 -33 32 -33 32 177 178 177 178 33
-32 33 -32 -177 -178z m1501 160 l26 -33 -502 -502 -502 -503 -34 32 -33 32
503 503 c277 277 506 503 510 503 3 0 18 -15 32 -32z m-1401 -260 l-177 -178
-33 32 -33 32 177 178 177 178 33 -32 33 -32 -177 -178z m1486 145 l23 -36
-493 -493 -493 -494 -34 32 -33 32 498 498 c274 274 500 498 503 498 3 0 16
-17 29 -37z m-2426 -285 c-92 -92 -174 -168 -181 -168 -7 0 -29 7 -49 15 l-37
16 214 215 215 214 3 -62 3 -62 -168 -168z m1040 40 l-177 -178 -33 32 -33 32
177 178 177 178 33 -32 33 -32 -177 -178z m1458 121 l21 -42 -478 -478 -478
-479 -33 32 -34 32 488 488 c268 268 489 488 490 488 2 0 12 -19 24 -41z
m-2418 -281 c-84 -85 -90 -89 -123 -83 -80 14 -82 8 66 156 l139 139 3 -62 3
-62 -88 -88z"/>
<path d="M203 4958 c-174 -172 -196 -198 -191 -231 3 -19 32 5 192 163 103
102 192 193 197 203 8 14 5 17 -17 17 -21 0 -60 -33 -181 -152z"/>
<path d="M303 4858 c-140 -139 -264 -265 -275 -281 -10 -15 -18 -37 -16 -50 3
-18 49 23 292 263 158 157 292 293 297 303 8 14 5 17 -17 17 -22 0 -75 -47
-281 -252z"/>
<path d="M402 4758 c-194 -194 -362 -365 -373 -381 -11 -15 -19 -37 -17 -50 4
-18 67 40 392 363 213 212 392 393 397 403 8 14 5 17 -18 17 -22 0 -89 -62
-381 -352z"/>
<path d="M502 4658 c-249 -249 -462 -465 -473 -481 -11 -15 -19 -37 -17 -50 4
-18 84 57 492 463 268 267 492 493 497 503 8 14 5 17 -18 17 -22 0 -104 -76
-481 -452z"/>
<path d="M602 4558 c-304 -304 -562 -565 -573 -581 -11 -15 -19 -37 -17 -50 4
-18 101 75 592 563 323 322 592 593 597 603 8 14 5 17 -18 17 -23 0 -118 -91
-581 -552z"/>
<path d="M702 4458 c-359 -359 -662 -665 -673 -681 -11 -15 -19 -37 -17 -50 4
-18 118 92 692 663 378 377 692 693 697 703 8 14 5 17 -18 17 -23 0 -133 -106
-681 -652z"/>
<path d="M802 4358 c-414 -414 -762 -765 -773 -781 -11 -15 -19 -37 -17 -50 4
-18 136 109 792 763 433 432 792 793 797 803 8 14 5 17 -18 17 -23 0 -148
-120 -781 -752z"/>
<path d="M902 4258 c-469 -469 -862 -865 -873 -881 -11 -15 -19 -37 -17 -50 4
-18 153 126 892 863 488 487 892 893 897 903 8 14 5 17 -18 17 -23 0 -162
-135 -881 -852z"/>
<path d="M1002 4158 c-524 -524 -962 -965 -973 -981 -11 -15 -19 -37 -17 -50
4 -18 170 144 992 963 543 542 992 993 997 1003 8 14 5 17 -18 17 -23 0 -177
-149 -981 -952z"/>
<path d="M1102 4058 c-579 -579 -1062 -1065 -1073 -1081 -11 -15 -19 -37 -17
-50 4 -18 188 161 1092 1063 598 597 1092 1093 1097 1103 8 14 5 17 -18 17
-23 0 -191 -164 -1081 -1052z"/>
<path d="M1202 3958 c-634 -634 -1162 -1165 -1173 -1181 -11 -15 -19 -37 -17
-50 4 -18 205 178 1192 1163 653 652 1192 1193 1197 1203 8 14 5 17 -18 17
-23 0 -206 -178 -1181 -1152z"/>
<path d="M1302 3858 c-689 -689 -1262 -1265 -1273 -1281 -11 -15 -19 -37 -17
-50 4 -18 222 195 1292 1263 708 707 1292 1293 1297 1303 8 14 5 17 -18 17
-23 0 -220 -193 -1281 -1252z"/>
<path d="M1402 3758 c-744 -744 -1362 -1365 -1373 -1381 -11 -15 -19 -37 -17
-50 4 -18 239 213 1392 1363 763 762 1392 1393 1397 1403 8 14 5 17 -18 17
-23 0 -235 -207 -1381 -1352z"/>
<path d="M3696 1450 c-779 -778 -1422 -1423 -1427 -1432 -8 -15 -5 -18 18 -18
23 0 239 212 1411 1383 761 760 1392 1394 1403 1410 11 15 19 37 17 50 -4 18
-245 -218 -1422 -1393z"/>
<path d="M3796 1350 c-724 -723 -1322 -1323 -1327 -1332 -8 -15 -5 -18 18 -18
23 0 225 197 1311 1283 706 705 1292 1294 1303 1310 11 15 19 37 17 50 -4 18
-227 -201 -1322 -1293z"/>
<path d="M3896 1250 c-669 -668 -1222 -1223 -1227 -1232 -8 -15 -5 -18 18 -18
23 0 210 183 1211 1182 651 651 1192 1195 1203 1211 11 15 19 37 17 50 -4 18
-210 -183 -1222 -1193z"/>
<path d="M3996 1150 c-614 -613 -1122 -1123 -1127 -1132 -8 -15 -5 -18 18 -18
23 0 196 168 1111 1082 596 596 1092 1095 1103 1111 11 15 19 37 17 50 -4 18
-193 -166 -1122 -1093z"/>
<path d="M4096 1050 c-559 -558 -1022 -1023 -1027 -1033 -8 -14 -5 -17 18 -17
23 0 181 153 1011 983 541 540 992 994 1003 1010 11 15 19 37 17 50 -4 18
-175 -149 -1022 -993z"/>
<path d="M4196 950 c-504 -503 -922 -923 -927 -932 -8 -15 -5 -18 18 -18 23 0
167 139 911 882 486 486 892 895 903 911 11 15 19 37 17 50 -4 18 -158 -132
-922 -893z"/>
<path d="M4296 850 c-449 -448 -822 -823 -827 -832 -8 -15 -5 -18 18 -18 23 0
152 124 811 783 431 430 792 794 803 810 11 15 19 37 17 50 -4 18 -141 -114
-822 -793z"/>
<path d="M4396 750 c-394 -393 -722 -723 -727 -732 -8 -15 -5 -18 18 -18 23 0
137 110 711 683 376 375 692 694 703 710 11 15 19 37 17 50 -4 18 -124 -97
-722 -693z"/>
<path d="M4496 650 c-339 -338 -622 -623 -627 -632 -8 -15 -5 -18 18 -18 23 0
123 95 611 583 321 320 592 594 603 610 11 15 19 37 17 50 -4 18 -106 -80
-622 -593z"/>
<path d="M4596 550 c-284 -283 -522 -523 -527 -533 -8 -14 -5 -17 18 -17 23 0
108 81 511 483 266 265 492 494 503 510 11 15 19 37 17 50 -4 18 -89 -62 -522
-493z"/>
<path d="M4696 450 c-229 -228 -422 -423 -427 -432 -8 -15 -5 -18 18 -18 22 0
93 66 411 383 211 210 392 394 403 410 11 15 19 37 17 50 -4 18 -72 -45 -422
-393z"/>
<path d="M4796 350 c-174 -173 -322 -323 -327 -332 -8 -15 -5 -18 17 -18 23 0
80 52 312 282 156 156 293 295 303 311 11 15 19 37 17 50 -4 18 -54 -28 -322
-293z"/>
<path d="M4896 250 c-119 -118 -222 -223 -227 -232 -8 -15 -5 -18 17 -18 21 0
65 37 211 183 205 202 226 227 221 260 -3 19 -37 -11 -222 -193z"/>
<path d="M4996 150 c-136 -133 -149 -150 -111 -150 18 0 49 23 111 82 102 98
127 130 122 161 -3 19 -19 7 -122 -93z"/>
</g>
</svg>
