<?xml version="1.0" standalone="no"?>
<!DOCTYPE svg PUBLIC "-//W3C//DTD SVG 20010904//EN"
 "http://www.w3.org/TR/2001/REC-SVG-20010904/DTD/svg10.dtd">
<svg version="1.0" xmlns="http://www.w3.org/2000/svg"
 width="640.000000pt" height="522.000000pt" viewBox="0 0 640.000000 522.000000"
 preserveAspectRatio="xMidYMid meet">

<g transform="translate(0.000000,522.000000) scale(0.100000,-0.100000)"
fill="#000000" stroke="none">
<path d="M0 2610 l0 -2610 3200 0 3200 0 0 2610 0 2610 -3200 0 -3200 0 0
-2610z m5158 28 l2 -1988 -1990 0 -1990 0 0 1983 c0 1091 3 1987 7 1990 3 4
898 6 1987 5 l1981 -3 3 -1987z"/>
<path d="M1200 2640 l0 -1960 1970 0 1970 0 0 1945 c-1 1070 -3 1952 -6 1960
-5 13 -238 15 -1970 15 l-1964 0 0 -1960z m3510 1489 c-33 -122 -98 -285 -179
-454 -325 -675 -874 -1356 -1329 -1650 -243 -156 -485 -206 -634 -130 -258
131 -274 344 -43 593 l58 63 -54 -22 c-247 -99 -518 -158 -588 -129 -17 7 -48
35 -70 64 -172 223 -96 476 232 767 98 87 241 195 458 347 148 104 196 145
199 172 8 59 -23 65 -300 64 -176 -1 -299 -8 -492 -28 -254 -26 -315 -30 -307
-22 19 19 1195 166 1329 166 121 0 190 -44 190 -122 0 -53 -39 -136 -86 -183
-18 -18 -156 -121 -308 -229 -365 -260 -559 -416 -709 -570 l-67 -70 26 -14
c49 -26 216 -16 408 24 231 48 614 179 869 298 54 25 107 46 118 46 31 0 59
-36 59 -75 0 -85 -75 -166 -230 -250 -434 -235 -659 -440 -706 -642 l-12 -53
44 0 c60 0 180 26 268 57 399 143 896 553 1294 1068 194 252 404 599 517 858
33 75 61 134 63 133 1 -2 -6 -37 -18 -77z m-413 -31 c44 -19 96 -72 66 -67
-32 5 -60 -6 -90 -36 -29 -29 -38 -33 -54 -25 -26 14 -24 47 4 71 l22 20 -22
-11 c-12 -5 -29 -20 -37 -32 -14 -20 -16 -20 -40 -4 -33 21 -33 40 2 64 49 34
99 41 149 20z m-120 -133 c54 -20 67 -34 57 -59 -9 -23 -34 -27 -68 -11 -26
13 -28 13 -16 1 8 -8 31 -19 50 -23 27 -7 35 -14 35 -33 0 -38 -29 -48 -72
-25 -66 35 -99 122 -72 191 l10 28 12 -24 c8 -16 32 -32 64 -45z m213 26 c37
-70 -29 -173 -125 -197 -27 -6 -29 -6 -17 9 16 19 19 69 9 114 -7 27 -5 33 14
44 20 10 25 8 46 -17 l23 -29 -11 33 c-8 25 -8 36 1 47 17 21 47 19 60 -4z
m-2417 -2509 l27 -28 -78 -194 -78 -195 -36 -3 -36 -3 -62 158 c-99 251 -110
283 -102 283 4 -1 31 -23 61 -50 49 -43 59 -60 96 -156 l42 -108 64 162 c35
89 67 162 70 162 3 0 17 -13 32 -28z m257 -193 l0 -149 66 0 c59 0 69 -3 104
-32 22 -18 40 -36 40 -40 0 -5 -67 -8 -150 -8 l-150 0 0 226 0 225 45 -37 45
-36 0 -149z m530 189 c22 -18 40 -36 40 -40 0 -5 -55 -8 -123 -8 l-123 0 -3
-50 -2 -50 88 0 c85 0 90 -1 128 -32 l39 -33 -124 -5 -125 -5 -3 -57 -3 -58
88 0 c87 -1 89 -1 126 -35 20 -20 37 -37 37 -40 0 -3 -56 -5 -125 -5 l-125 0
-40 36 -40 36 0 189 0 189 126 0 125 0 39 -32z m328 -40 c17 -40 51 -122 75
-183 25 -60 53 -127 61 -147 9 -21 13 -38 9 -38 -5 0 -37 27 -73 60 l-64 60
-77 0 -77 0 -24 -60 c-12 -33 -26 -60 -30 -60 -4 0 -19 11 -34 23 l-27 24 66
171 c37 94 72 183 77 197 8 21 16 25 49 25 l39 0 30 -72z m382 11 c0 -4 -13
-10 -28 -14 -51 -11 -93 -44 -113 -91 -23 -50 -19 -88 12 -140 38 -62 149 -86
203 -43 33 26 36 69 5 69 -22 0 -99 55 -99 71 0 5 45 9 100 9 l100 0 0 -76 c0
-41 -5 -84 -10 -95 -6 -10 -34 -32 -63 -49 -124 -71 -286 -12 -326 119 -35
117 16 234 123 282 l41 18 27 -26 c16 -15 28 -30 28 -34z m320 -122 c0 -156
16 -186 98 -187 32 0 49 6 67 25 24 24 25 28 25 180 0 85 3 155 7 155 3 0 21
-12 40 -26 l34 -26 -3 -142 c-3 -139 -4 -144 -31 -179 -41 -54 -78 -70 -151
-65 -75 5 -120 33 -147 92 -16 34 -19 67 -19 199 l0 158 40 -33 40 -33 0 -118z
m630 151 c22 -18 40 -36 40 -40 0 -5 -56 -8 -125 -8 l-125 0 0 -50 0 -50 88 0
c84 0 89 -1 127 -32 l39 -33 -124 -5 -125 -5 0 -55 0 -55 85 -5 c76 -4 89 -8
122 -35 21 -16 38 -33 38 -37 0 -5 -57 -8 -127 -8 l-127 0 -38 37 -38 37 0
188 0 188 126 0 125 0 39 -32z m320 -193 l0 -225 -40 0 -40 0 0 185 0 185 -40
0 c-22 0 -40 4 -40 9 0 5 17 23 38 40 28 23 47 30 80 31 l42 0 0 -225z m-2682
-147 c34 -34 -6 -90 -48 -68 -35 19 -20 80 20 80 9 0 21 -5 28 -12z"/>
<path d="M3017 1383 c-5 -8 -47 -116 -47 -120 0 -2 23 -3 50 -3 28 0 50 3 50
8 0 18 -48 123 -53 115z"/>
</g>
</svg>
