<svg xmlns="http://www.w3.org/2000/svg" viewBox="0 0 203 195" width="203" height="195">
	<defs>
		<clipPath clipPathUnits="userSpaceOnUse" id="cp1">
			<path d="M-717 -544L967 -544L967 646L-717 646Z" />
		</clipPath>
	</defs>
	<style>
		tspan { white-space:pre }
		.shp0 { fill: #e32b19 } 
		.shp1 { fill: #991f18 } 
		.shp2 { fill: #111111 } 
	</style>
	<g id="Page 1" clip-path="url(#cp1)">
		<path id="Path 5" class="shp0" d="M14.43 36.35C30.58 33.35 73.55 27.82 87.73 26.84C102.98 25.32 104.62 34.22 96.59 43.48C90.23 50.24 18.08 93.4 31.03 110.37C2.37 80.77 67.76 48.6 76.95 38.68C87.94 27.25 38.86 34.42 14.43 36.35Z" />
		<path id="Path 6" class="shp1" d="M31.03 110.37C35.42 117.13 84.86 99.75 105.69 82.17C107.29 80.86 115.73 74.34 114.38 72C85.56 86.76 42.39 98.19 36.48 91.76C33.98 94.59 29.27 100.65 29.47 106.06C29.51 107.58 30.05 109.01 31.03 110.37Z" />
		<path id="Path 7" class="shp0" d="M114.38 72C120.9 72.29 120.65 82.87 106.59 89.63C84 101.27 56.7 120.32 68.95 140.37C34.56 123.15 77.28 93.93 95.93 84.59C100.69 82.05 116.14 75.81 114.38 72Z" />
		<path id="Path 8" class="shp1" d="M187.27 10.48C162.39 73.52 101.3 130.04 65.96 128.85C65.59 132.83 66.78 136.88 68.95 140.37C109.09 152.79 177.19 57.54 187.27 10.48Z" />
		<path id="Path 9" class="shp0" d="M166.04 24.09C165.99 23.88 165.95 23.76 165.95 23.76C165.99 23.88 166.04 24.09 166.04 24.09ZM163.86 31.88L163.86 31.92C164.07 31.71 165.01 30.73 165.83 28.97C165.87 28.88 165.91 28.8 165.95 28.72C165.95 28.72 165.95 28.68 165.99 28.68C166.28 27.86 166.36 27.16 166.32 25.98C166.28 25.44 166.16 24.66 166.04 24.09C166.2 24.91 166.49 26.96 165.91 28.6C165.38 30.2 164.15 31.55 163.86 31.88Z" />
		<path id="Path 10" fill-rule="evenodd" class="shp0" d="M160.01 23.23C160.13 23.07 160.3 22.9 160.46 22.74C161.4 21.8 162.59 20.93 163.82 20.57C164.85 20.28 165.87 20.28 166.81 20.81C166.32 20.69 165.63 20.69 164.64 20.98C162.43 21.63 160.91 23.68 160.34 24.71L160.01 23.23ZM159.72 23.23L160.09 24.79L158.08 23.72L157.71 22.25L159.72 23.23ZM155.75 20.93C156.77 19.95 157.88 19.21 159.11 18.84C160.38 18.48 162.22 18.39 164.77 19.13C164.36 18.93 163.86 18.8 163.41 18.64C161.77 18.19 160.34 18.19 159.03 18.6C157.75 19.01 156.61 19.75 155.58 20.73L153.53 19.75C153.65 19.62 153.9 19.34 154.35 18.93C154.43 18.89 154.52 18.76 154.6 18.72C154.68 18.68 154.76 18.6 154.8 18.56C154.93 18.48 155.01 18.39 155.13 18.31C155.17 18.31 155.21 18.27 155.25 18.23C155.3 18.23 155.34 18.15 155.38 18.15C155.75 17.9 156.16 17.66 156.69 17.45C157.43 17.08 158.57 16.71 159.97 16.71C161.45 16.71 163.17 17.12 165.05 18.27C165.34 18.43 166.08 19.01 166.61 19.62C167.14 20.28 167.47 20.77 167.63 21.06L167.55 21.02C166.4 20.03 165.05 19.95 163.78 20.32C162.47 20.73 161.24 21.59 160.3 22.53C160.13 22.7 159.97 22.86 159.85 23.03L157.71 22C158.04 21.43 158.7 20.73 159.93 19.99C160.75 19.46 161.61 19.13 162.3 18.97C161.53 18.93 160.58 19.05 159.56 19.5C157.88 20.24 156.53 22.04 156.28 22.62L155.75 20.93ZM158.45 26.71L159.64 25.61L159.68 27.94L158.53 29.05L158.45 26.71ZM158.41 31.3C157.06 30.94 155.87 30.36 154.88 29.5C154.15 28.8 153.33 27.7 152.71 26.02L152.71 25.94L152.67 25.94L152.67 25.85C152.51 25.44 152.38 24.99 152.26 24.5C152.26 24.99 152.38 25.44 152.51 25.89C152.96 27.53 153.7 28.76 154.72 29.71C155.71 30.61 156.93 31.18 158.37 31.55L158.45 33.89C158.29 33.85 157.92 33.8 157.26 33.56C157.18 33.56 157.06 33.52 156.97 33.48C156.89 33.44 156.81 33.39 156.73 33.35C156.61 33.31 156.48 33.27 156.36 33.23C156.32 33.19 156.28 33.19 156.24 33.15C156.2 33.15 156.12 33.11 156.07 33.07C155.71 32.9 155.25 32.66 154.8 32.29C153.41 31.39 151.2 28.97 151.36 24.66C151.36 24.38 151.48 23.43 151.77 22.66C152.22 21.47 152.63 20.85 152.67 20.85C152.22 22.49 152.88 23.97 153.98 24.87C155.05 25.77 156.57 26.3 158.21 26.75L158.29 29.13C157.67 29.17 156.73 28.97 155.42 28.27C154.6 27.82 153.94 27.33 153.45 26.84C153.82 27.49 154.35 28.19 155.21 28.8C156.69 29.83 158.9 30.12 159.56 30.03L158.41 31.3ZM158.29 26.51C156.69 26.1 155.21 25.53 154.15 24.66C153.33 23.97 152.79 23.07 152.71 21.8C152.88 22.29 153.2 22.86 153.98 23.56C155.66 25.16 158.25 25.48 159.39 25.44L158.29 26.51ZM158.62 31.47L159.76 30.2L159.8 32.37L158.7 33.68L158.62 31.47ZM168 22.49L167.39 22.86L166.12 23.64L164.44 23.39L166.32 22.21L168 22.49ZM162.71 30.89C162.92 29.5 162.63 27.94 162.14 26.3L164.23 25.16C164.56 25.69 164.81 26.59 164.85 28.03C164.89 28.93 164.77 29.75 164.6 30.4C164.97 29.79 165.3 28.97 165.42 27.9C165.58 26.18 164.77 24.21 164.36 23.64L165.95 23.89C166.45 25.53 166.53 26.88 166.2 28.15C165.87 29.3 165.18 30.4 164.19 31.59L164.11 31.71L164.03 31.75L163.99 31.84L163.41 32.53C164.85 31.35 166.08 29.5 166.45 28.19C166.77 26.92 166.73 25.53 166.24 23.89L168.25 22.66C168.33 22.82 168.46 23.15 168.54 23.72C168.58 23.84 168.62 23.97 168.62 24.05C168.62 24.13 168.66 24.21 168.66 24.34C168.66 24.46 168.7 24.54 168.7 24.71L168.7 24.83C168.7 24.91 168.74 24.99 168.74 24.99C168.74 25.44 168.74 25.94 168.7 26.51C168.58 28.19 167.59 31.26 163.78 33.31L163.78 33.27C163.49 33.44 162.63 33.8 161.81 33.93C160.54 34.13 159.76 34.09 159.76 34.09C161.45 33.6 162.47 32.29 162.71 30.89ZM162.02 26.1L160.58 25.77L162.55 24.54L163.99 24.99L162.02 26.1ZM160.46 25.98L161.89 26.34C162.35 27.94 162.63 29.5 162.43 30.85C162.26 31.96 161.69 32.94 160.5 33.64C160.87 33.31 161.28 32.7 161.53 31.59C162.06 29.34 161.08 27 160.46 25.98ZM153.57 20.03L155.5 20.98L156.03 22.57L154.11 21.59L153.57 20.03Z" />
		<path id="Path 11" class="shp2" d="M35.83 163.93L32.51 161.02L25.21 179.14L20.45 166.89L13.69 161.02L23.28 185.57L27.14 185.57L35.83 163.93ZM48.33 164.92L43.82 161.02L43.82 185.57L60.67 185.57L56 181.52L48.33 181.52L48.33 164.92ZM39.93 183.28C39.93 182.01 38.9 180.99 37.63 180.99C36.36 180.99 35.33 182.01 35.33 183.28C35.33 184.55 36.36 185.57 37.63 185.57C38.9 185.57 39.93 184.55 39.93 183.28ZM66.58 165L80.56 165L75.96 161.02L62.07 161.02L62.07 181.85L66.37 185.57L80.56 185.57L75.88 181.52L66.58 181.52L66.58 174.79L80.31 174.79L80.31 174.55L76.05 170.9L66.58 170.9L66.58 165ZM116.63 164.84L117.49 163.85L116.63 164.84ZM117.49 163.85L114.42 161.19C108.76 162.5 104.7 167.54 104.66 173.36C104.62 179.22 108.35 184.22 114.05 185.57C116.02 186.03 118.11 186.03 120.08 185.57C123.03 184.84 125.61 183.07 127.37 180.57L127.37 172.38L122.99 172.38L115.94 172.38L120.61 176.39L122.99 176.39L122.99 179.35C120.28 181.97 116.18 182.5 112.94 180.66C109.66 178.81 107.98 175.04 108.84 171.39C109.66 167.75 112.9 165.08 116.63 164.84C116.88 164.84 117.13 164.71 117.29 164.55C117.45 164.34 117.54 164.1 117.49 163.85ZM150.13 176.6L150.13 164.63L145.95 161.02L145.95 176.6C145.95 178.03 145.37 179.39 144.35 180.37C143.28 181.35 141.89 181.85 140.5 181.81C139.06 181.85 137.67 181.35 136.64 180.37C135.58 179.39 135 178.03 135 176.6L135 164.63L130.82 161.02L130.82 176.6C130.82 179.14 131.84 181.56 133.69 183.32C135.49 185.08 137.95 186.03 140.5 185.94C143 186.03 145.46 185.08 147.26 183.32C149.1 181.56 150.13 179.14 150.13 176.6ZM158.53 165L172.56 165L167.96 161.02L154.07 161.02L154.07 181.85L158.33 185.57L172.56 185.57L167.84 181.52L158.53 181.52L158.53 174.79L172.27 174.79L172.27 174.55L168 170.9L158.53 170.9L158.53 165ZM187.89 161.02L183.42 161.02L183.05 161.02L178.5 164.96L183.42 164.96L183.42 185.57L187.89 185.57L187.89 161.02ZM98.55 170.78L94.04 170.78L95.6 174.67L89.49 174.67L92.45 166.93L94.04 170.78L98.55 170.78L94.54 161.02L90.27 161.02L81.91 182.71L85.27 185.57L87.98 178.53L97.2 178.53L97.61 179.55L104.58 185.57L98.55 170.78Z" />
	</g>
</svg>